PathFileType	4	(X/Y/Z)	Walk1_0-155.trc
DataRate	CameraRate	NumFrames	NumMarkers	Units	OrigDataRate	OrigDataStartFrame	OrigNumFrames
30	30	9	22	m	30	58	155
Frame#	Time	Hip			RHip			RKnee			RAnkle			RBigToe			RSmallToe			RHeel			LHip			LKnee			LAnkle			LBigToe			LSmallToe			LHeel			Neck			Head			Nose			RShoulder			RElbow			RWrist			LShoulder			LElbow			LWrist		
		X1	Y1	Z1	X2	Y2	Z2	X3	Y3	Z3	X4	Y4	Z4	X5	Y5	Z5	X6	Y6	Z6	X7	Y7	Z7	X8	Y8	Z8	X9	Y9	Z9	X10	Y10	Z10	X11	Y11	Z11	X12	Y12	Z12	X13	Y13	Z13	X14	Y14	Z14	X15	Y15	Z15	X16	Y16	Z16	X17	Y17	Z17	X18	Y18	Z18	X19	Y19	Z19	X20	Y20	Z20	X21	Y21	Z21	X22	Y22	Z22
59	1.9666666666666666	-1.436387896035318	0.8625024190408392	0.3516491947636963	-1.4400074822319269	0.8500639128639418	0.451990844334706	-1.3273675263300806	0.49555093084234475	0.4848390784997514	-1.6885718278909334	0.2659387755178488	0.4462480727493836	-1.6864523824247757	0.04242402076183688	0.45029989227190825	-1.7051470229882095	0.08179022356308681	0.4857012802909521	-1.7693259523794218	0.26470555579439325	0.43705132632245197	-1.4306220409644117	0.85248304538308	0.2393021954866846	-1.3305615061027762	0.49500335549486063	0.2646516818400795	-1.3511216002671746	0.09455359569481601	0.287201764304601	-1.1361203961184572	0.030830899813070724	0.3031043016301491	-1.1730577056545248	0.029068640217436183	0.2412699427999413	-1.3903121151236235	0.018182780669826495	0.3019913503309368	-1.480180031273012	1.5521347662253993	0.32350075889455054	-1.3907045319463163	1.786422767098542	0.3558287735308695	-1.3364077999737434	1.6733418144477454	0.3325484028644963	-1.5126208969939963	1.4361648312044761	0.51367539305454	-1.4641580554618112	1.12224836468856	0.5683463181483116	-1.3768784264252614	0.8623274312533289	0.6106159920188576	-1.5321064392473651	1.426444990919866	0.11368125949909755	-1.4788372252601703	1.1042178165551204	0.11453579205424887	-1.4203070061945933	0.8583218459561622	0.0796187571811199
60	2.0	-1.406682894138477	0.8711070725034987	0.3499226299992913	-1.4009616731910721	0.8604943249951084	0.4487717810824003	-1.2531526287274202	0.5212423596804885	0.4768288383712171	-1.600802928975319	0.27474954171169524	0.44546810524077585	-1.5491894676632827	0.005570148218744893	0.47914357632836146	-1.5771630448016825	0.027585467487079657	0.5172382817274707	-1.6843330458626977	0.27159395515210255	0.4363685754398248	-1.4072689887397067	0.8599521022400531	0.2360389246771244	-1.3270946443169152	0.495891307631329	0.2547256389855306	-1.3501375759453846	0.09393341845608519	0.28668042414067546	-1.1345991604224763	0.028175434478653116	0.3016290979249925	-1.1732698705103384	0.027134493853718827	0.23843561915060874	-1.400808745571451	0.022058006234784627	0.305978289638394	-1.445698160315087	1.5621877764252385	0.32105881076148984	-1.4063761532807681	1.8072644357155305	0.31772458653171604	-1.2986635463348306	1.6793143649889388	0.32912560894654097	-1.482284604693393	1.4459634503823844	0.5106582915377577	-1.4374360740373908	1.1287940522782807	0.5649340364169629	-1.3664666834365529	0.8630224647244923	0.6103265352508022	-1.4939807167635462	1.4378659441584758	0.11466374703596313	-1.4364661443550846	1.1174048874917974	0.10661821943393325	-1.3593980367210066	0.8714335780252112	0.07742211640973798
61	2.033333333333333	-1.3774299923346278	0.8789344355577304	0.3438290946252922	-1.3623067821143922	0.8561072412569103	0.4438197400315528	-1.1890945198316905	0.5397986423865148	0.4673194645249249	-1.5023620531626565	0.27389104432078737	0.4449436441962024	-1.4058569194172048	0.01970327656961361	0.4851984264783389	-1.449434221740421	0.1311606926226564	0.49153806875548434	-1.5817309117991811	0.2623292581851258	0.4415118776036221	-1.3762634233458013	0.8586308792065359	0.22822835762211532	-1.3275586587659758	0.48828530272837783	0.25119492524259474	-1.3625440269797358	0.1012827823492087	0.27085071598903043	-1.1279915132337004	0.033202455650282424	0.30193758883593363	-1.1724418297724255	0.02949630990800694	0.23956367099079792	-1.3916334038413924	0.031130305979345584	0.29394192314236345	-1.4087506695845324	1.5704187271705397	0.32003900355175374	-1.3698974892630307	1.810438365141039	0.323555468629312	-1.263002369431345	1.6872088397547529	0.32449721897876277	-1.4462991158035794	1.4535880907483214	0.5109073457216129	-1.4137084453517077	1.13273345293772	0.5656642301794865	-1.3589502748539948	0.8700120414078368	0.603003340129813	-1.4543085060106724	1.4464051471043424	0.1126837749957064	-1.371313369063614	1.1316271345027273	0.08924687737235346	-1.2994658472432257	0.8762935114864057	0.08721963587161402
62	2.066666666666667	-1.3453435166544896	0.8871134217388323	0.3419963125985823	-1.3273408211527769	0.8640481882636746	0.44532484605025696	-1.130973548737709	0.5574502888649853	0.4604323255103425	-1.4081746722666302	0.2669913743483403	0.4396656469591653	-1.295153303084886	0.1325102114590919	0.46094787968743817	-1.3471374329028505	0.14952873560997168	0.4992325963692898	-1.4834726136901086	0.24112801413889884	0.4357189087774331	-1.3502537001474562	0.8610331833074665	0.22656113467867758	-1.3171781869925216	0.49037548468064796	0.2558231469945712	-1.350148218760858	0.10499644719157404	0.2870911808649095	-1.1378076415499538	0.02732445073137821	0.3034472659908867	-1.1812875709354587	0.027439072319289663	0.24152991729398646	-1.3917174400861203	0.03197440925364452	0.29424281677828606	-1.3737293085179578	1.5759500205220283	0.31929830113659874	-1.3286216445194323	1.8306829421884236	0.33230455768679495	-1.2237706946434854	1.690644958439128	0.32549611643521836	-1.4121438823142622	1.4579336764420505	0.5112453732004422	-1.3899060684349136	1.1431959315195275	0.5647307072127855	-1.3499908001281398	0.8796533890406668	0.6015730903855689	-1.4170292415925254	1.4542672686146931	0.11272776067362596	-1.3262800374918304	1.1430664247358298	0.08760419320462771	-1.2324297445974173	0.9034516841787544	0.0751570803727471
63	2.1	-1.3115248443712235	0.8927913746590244	0.34135856280690785	-1.2906553898117923	0.8721256583998794	0.4494032482080064	-1.0808985331836845	0.5750021570827902	0.4549134531855062	-1.3199743052269777	0.2227672567543162	0.42709016418406825	-1.1848872909507242	0.0960824175199389	0.4678738488304888	-1.2409278741063614	0.11374258236864396	0.5096795301978652	-1.3884436015821924	0.17580409329682004	0.42652729538189676	-1.3205530379699744	0.8639350686381734	0.22920248388493739	-1.3023655483077	0.4962288886258258	0.25719309665055906	-1.361299070080422	0.10370703464555915	0.26543864115242866	-1.1416879133929012	0.024579119395761583	0.29579337318153937	-1.1793648831693495	0.024993720384902097	0.2371612174572666	-1.4000643563333306	0.031995363945036714	0.2764308038075105	-1.3383240546648227	1.5786368183985033	0.3173124804365025	-1.2922177118109033	1.8323528461899743	0.3271631084666073	-1.1865221777834458	1.6914763652345084	0.32489662506123435	-1.3806976461913778	1.459946754239236	0.508352580634298	-1.370530855513675	1.146700426099773	0.5620376391481012	-1.3355865864242145	0.8900405639901146	0.6050904847421915	-1.3795442681350494	1.4568038207628045	0.11436911429797199	-1.2845733903249432	1.1503025662777209	0.08341254590582042	-1.1771427082876604	0.9134830203888198	0.07017551753669365
64	2.1333333333333333	-1.279006967266145	0.8944882147477968	0.3431116804009636	-1.2555090533527165	0.8788665532933022	0.4496764944892216	-1.0355802457182175	0.5811110240231276	0.446006239011272	-1.2136833216688105	0.20024025555129585	0.4354955173216399	-1.044120593186639	0.08301581233431114	0.4564746070574863	-1.0907986727079777	0.09727515800580555	0.5035689191750227	-1.269656186913603	0.140963484696112	0.4356489985966615	-1.290187187743388	0.8688713280995685	0.22999486436256605	-1.2879001746420478	0.49436931874793844	0.2588905666626776	-1.3546031984236717	0.0938036620255433	0.29157452782151233	-1.138321208142855	0.027398055132320402	0.29201248928307455	-1.181670353357122	0.021191165440748793	0.23755241315681003	-1.3908838142999937	0.030174688001177914	0.29652410105259525	-1.2996403685548101	1.5790910689224404	0.3158466342684585	-1.2506252359876449	1.835243185635715	0.3327622844230671	-1.1509326730829486	1.6917007828946506	0.3252188456375241	-1.3461515211783999	1.4609354031847266	0.5064643946260101	-1.3530095098880113	1.1500165092711188	0.5614173436042426	-1.322517084655276	0.8911110647389411	0.5939609893763885	-1.338787485697086	1.4595368253708305	0.11609092711189455	-1.243921419419846	1.1526440102587547	0.07509382552859992	-1.1139282810515125	0.9209318552101932	0.07193830756271175
65	2.1666666666666665	-1.2448031286664447	0.8942276962953144	0.33634243015823195	-1.2269596702252596	0.8819960438786248	0.45052946114903014	-1.0223622605274394	0.5866565971027917	0.432084584344726	-1.1106973311624908	0.17780595387378084	0.43651927486937303	-0.9184296813747368	0.06530989172286256	0.4423496348719444	-0.9567787289925372	0.07607368087756189	0.4907501804443156	-1.1594159923565	0.11252333855016619	0.43645372044696795	-1.2613298860681896	0.8723303089725722	0.22672410160995632	-1.2673679985582849	0.49093106247476037	0.25963140386534067	-1.3559613338128966	0.08906443631653889	0.28600264576155304	-1.1415993986522657	0.018536189595143273	0.2961076613586468	-1.1875557003902084	0.014565829872826267	0.23882426227404704	-1.3984052625121617	0.03391527508073291	0.30122367962056884	-1.2616803512999692	1.5784369992432705	0.31728829255038243	-1.2108810631579905	1.8355054394502688	0.3312234726427734	-1.1116799765240346	1.689263625243927	0.32732298218359573	-1.3108980940607788	1.4584451645519294	0.5082918212402818	-1.3285812617844284	1.151005459464846	0.5612982292982163	-1.3078091830977248	0.889311992228447	0.5931749818426557	-1.3020255826016833	1.4583275588139049	0.11344495010279546	-1.2055638586571793	1.1536017249133108	0.07428646820293487	-1.0597953862216878	0.932628293155943	0.06959117372721463
66	2.2	-1.210026344351831	0.8898073840296042	0.33091318172323253	-1.1921333612678948	0.8767684757773176	0.44436431010172844	-0.9921546623486716	0.5850317651307534	0.42145355654509475	-0.9905778916146005	0.1571823483393933	0.431875833332422	-0.7791324187294841	0.08070049558174722	0.4422782545563317	-0.8159201875151713	0.07782492410026173	0.4868757710745974	-1.0285112604242577	0.0839260331602952	0.43637992393145036	-1.232454628007011	0.865891777962074	0.2249148369878615	-1.2540972173191018	0.4887931232840538	0.2606161476279234	-1.344932032446053	0.10051057384645998	0.298408859758054	-1.156584866153507	0.014217972318719666	0.29573970088846385	-1.2073975917308302	0.013006770240106333	0.244496136727271	-1.3954606461376469	0.03546607106009034	0.3032988767814981	-1.2242304005717792	1.5757169795167123	0.3158350561977583	-1.1769775464889287	1.8309021601507638	0.33035568750141026	-1.072358533205823	1.6861733961551553	0.3307235130470401	-1.2728621020932596	1.4558121524871648	0.5086503164981677	-1.2977777942756703	1.1454104633801225	0.5602911586357334	-1.2854689118572726	0.8843605087309572	0.5947734135824527	-1.2652585517132435	1.4563717789613564	0.11185951466270559	-1.1628812064503427	1.1534622265929835	0.07337234511137766	-0.9998024934087405	0.9373542412599821	0.07563695997061562
67	2.2333333333333334	-1.177428598687166	0.8844804707213375	0.3290857111017404	-1.1603310963801552	0.8707733853405902	0.44431761161691957	-0.9684815544226825	0.5647404339428208	0.41475726418033493	-0.8891313658057196	0.14471891136805723	0.41890421352624396	-0.67546834595467	0.11794327632044982	0.42799684206696015	-0.7059352396481585	0.10293584812856409	0.475463000921775	-0.9154533754185908	0.06567055914053765	0.4190599175265736	-1.198446287376231	0.8657790935805225	0.2254043790040039	-1.238594388361846	0.4851430376060551	0.2645882163203398	-1.3386199208873826	0.102136275244596	0.2989362856381	-1.150952712571021	0.012061141774694304	0.2976003691812595	-1.205720183030041	0.012319373052030182	0.2449390441578426	-1.3914564688552686	0.03146647307773752	0.3053605205829371	-1.1860740182483689	1.5712237889036302	0.3152389906801653	-1.1377566667864816	1.827609437211134	0.33126544373418254	-1.0303158136162611	1.6737468479983708	0.3265978500751973	-1.2333183043466078	1.4498893461693425	0.5091723277048986	-1.265020296927925	1.141525170633533	0.5602599551623425	-1.2575073027664132	0.8830362898770335	0.5964066735827795	-1.2249784578783298	1.4523789375248097	0.11022603749940264	-1.1237024116912349	1.1511535355169469	0.07319730921687843	-0.9482031435245496	0.9444524680264179	0.08029338735945252
